<?xml version="1.0" standalone="no"?>
<!DOCTYPE svg PUBLIC "-//W3C//DTD SVG 1.1//EN" "http://www.w3.org/Graphics/SVG/1.1/DTD/svg11.dtd">
<svg t="1667746172616" class="icon" viewBox="0 0 1024 1024" version="1.1" xmlns="http://www.w3.org/2000/svg" xmlns:xlink="http://www.w3.org/1999/xlink" width="200" height="200">
  <path
    d="M838.762667 153.173333c145.706667 99.904 160.853333 309.610667 41.557333 452.906667l-1.642667 1.813333-296.96 305.749334-0.704 0.704a83.2 83.2 0 0 1-117.653333 0.32C302.784 754.944 203.690667 652.48 165.077333 606.08 45.781333 462.784 60.906667 253.077333 206.634667 153.173333c101.738667-69.738667 228.48-60.501333 316.053333 23.978667 87.573333-84.48 214.336-93.717333 316.074667-23.957333z m-486.698667 92.224c-74.56 0-128 60.437333-128 139.221334a32 32 0 0 0 64 0c0-45.077333 26.666667-75.221333 64-75.221334a32 32 0 1 0 0-64z"></path>
  <path
    d="M838.762667 153.173333c145.706667 99.904 160.853333 309.610667 41.557333 452.906667l-1.642667 1.813333-296.96 305.749334-0.704 0.704a83.2 83.2 0 0 1-117.653333 0.32C302.784 754.944 203.690667 652.48 165.077333 606.08 45.781333 462.784 60.906667 253.077333 206.634667 153.173333c101.738667-69.738667 228.48-60.501333 316.053333 23.978667 87.573333-84.48 214.336-93.717333 316.074667-23.957333z m-486.698667 92.224c-74.56 0-128 60.437333-128 139.221334a32 32 0 0 0 64 0c0-45.077333 26.666667-75.221333 64-75.221334a32 32 0 1 0 0-64z"></path>
</svg>