<?xml version="1.0" standalone="no"?><!DOCTYPE svg PUBLIC "-//W3C//DTD SVG 1.1//EN" "http://www.w3.org/Graphics/SVG/1.1/DTD/svg11.dtd"><svg t="1681713872660" class="icon" viewBox="0 0 1024 1024" version="1.1" xmlns="http://www.w3.org/2000/svg" p-id="997" xmlns:xlink="http://www.w3.org/1999/xlink" width="200" height="200"><path d="M512 0C229.227 0 0 229.227 0 512s229.227 512 512 512 512-229.227 512-512S794.773 0 512 0z m-60.832 704.742c0 34.191-25.027 62.18-55.617 62.18s-55.617-27.975-55.617-62.18V319.258c0-34.19 25.027-62.18 55.617-62.18s55.617 27.975 55.617 62.18z m225.946 0c0 34.191-25.028 62.18-55.617 62.18s-55.618-27.975-55.618-62.18V319.258c0-34.19 25.028-62.18 55.618-62.18s55.617 27.975 55.617 62.18z" p-id="998"></path></svg>